<svg id="Layer_1" data-name="Layer 1" xmlns="http://www.w3.org/2000/svg" viewBox="0 0 410.68 184.9"><defs><style>.cls-1,.cls-2{fill:#65656a;}.cls-2{fill-rule:evenodd;}</style></defs><title>MLF_Grey</title><polygon class="cls-1" points="109.67 166.37 109.67 153.38 104.75 153.38 104.75 151.89 116.16 151.89 116.16 153.38 111.24 153.38 111.24 166.37 109.67 166.37 109.67 166.37"/><path class="cls-1" d="M126.84,159.57v6.8h-1.5v-6.43c0-1.9-1.14-2.77-2.37-2.77-1.52,0-3.19,1.34-3.19,3.9v5.3h-1.5V151.89h1.5v5.94a3.85,3.85,0,0,1,3.49-2.16,3.54,3.54,0,0,1,3.57,3.9Z"/><path class="cls-1" d="M137.2,160.43a3,3,0,0,0-3-3.31,3.26,3.26,0,0,0-3.22,3.31Zm1.41,4a5.39,5.39,0,0,1-4.29,2.2c-2.64,0-4.94-2-4.94-5.48s2.43-5.46,5-5.46c2.91,0,4.39,2.36,4.39,5a8.55,8.55,0,0,1-.08,1.18H131a3.31,3.31,0,0,0,3.44,3.26,3.59,3.59,0,0,0,3.15-1.69l1,1Z"/><path class="cls-1" d="M149.42,158.44a2.59,2.59,0,0,0,2.91-2.61c0-1.23-.78-2.45-2.76-2.45h-2.66v5.06Zm.25-6.55a3.87,3.87,0,0,1,4.23,3.92,4.11,4.11,0,0,1-4.4,4.13h-2.59v6.43h-1.57V151.89Z"/><path class="cls-1" d="M161.62,156.09l-.34,1.54a2.9,2.9,0,0,0-1.21-.29c-1.37,0-2.34,1.06-2.34,2.95v6.08h-1.5V155.93h1.5v1.41a2.64,2.64,0,0,1,2.47-1.53,3.25,3.25,0,0,1,1.42.28Z"/><path class="cls-1" d="M170.28,160.43a3,3,0,0,0-3-3.31,3.26,3.26,0,0,0-3.21,3.31Zm1.42,4a5.39,5.39,0,0,1-4.29,2.2c-2.64,0-4.95-2-4.95-5.48s2.44-5.46,5-5.46c2.92,0,4.4,2.36,4.4,5a8.55,8.55,0,0,1-.08,1.18h-7.67a3.31,3.31,0,0,0,3.44,3.26,3.6,3.6,0,0,0,3.15-1.69l1,1Z"/><path class="cls-1" d="M178.83,166.15a3.63,3.63,0,0,1-1.72.44c-1.37,0-2.7-.87-2.7-3.17V151.89h1.5v11.55c0,1.3.66,1.78,1.44,1.78a2.53,2.53,0,0,0,1-.22l.53,1.15Z"/><path class="cls-1" d="M187.11,166.37V164.5a3.62,3.62,0,0,1-3.31,2.09,3.58,3.58,0,0,1-3.6-3.89v-6.77h1.51v6.39c0,1.94,1.11,2.79,2.32,2.79,1.47,0,3.08-1.32,3.08-3.87v-5.31h1.5v10.44Z"/><path class="cls-1" d="M199.65,161.22c0-2.71-1.82-4.07-3.57-4.07s-3.43,1.27-3.43,3.89a3.7,3.7,0,0,0,3.62,4.05c1.71,0,3.38-1.3,3.38-3.87Zm0,5.15v-1.55a4.18,4.18,0,0,1-3.45,1.74,5.1,5.1,0,0,1-5-5.49,5,5,0,0,1,5-5.4,4.22,4.22,0,0,1,3.46,1.81v-5.59h1.5v14.48Z"/><path class="cls-1" d="M211.51,160.43a3,3,0,0,0-3-3.31,3.26,3.26,0,0,0-3.22,3.31Zm1.42,4a5.42,5.42,0,0,1-4.29,2.2c-2.64,0-4.95-2-4.95-5.48s2.43-5.46,5-5.46c2.92,0,4.4,2.36,4.4,5a8.67,8.67,0,0,1-.09,1.18h-7.67a3.31,3.31,0,0,0,3.44,3.26,3.59,3.59,0,0,0,3.15-1.69l1,1Z"/><polygon class="cls-1" points="221.22 151.89 229.21 163.4 229.21 151.89 230.77 151.89 230.77 166.37 229.21 166.37 221.22 154.73 221.22 166.37 219.65 166.37 219.65 151.89 221.22 151.89 221.22 151.89"/><path class="cls-1" d="M241.34,160.43a3,3,0,0,0-3-3.31,3.25,3.25,0,0,0-3.21,3.31Zm1.42,4a5.42,5.42,0,0,1-4.29,2.2c-2.64,0-4.95-2-4.95-5.48s2.43-5.46,5-5.46c2.92,0,4.4,2.36,4.4,5a8.67,8.67,0,0,1-.09,1.18h-7.67a3.31,3.31,0,0,0,3.44,3.26,3.58,3.58,0,0,0,3.15-1.69l1,1Z"/><path class="cls-1" d="M251.15,165.68a3.18,3.18,0,0,1-2.21.91c-1.47,0-2.84-.93-2.84-3.17v-6h-1.9v-1.46h1.9v-2.66h1.5v2.66h2.49v1.46H247.6v6.05c0,1.21.61,1.78,1.44,1.78a2.24,2.24,0,0,0,1.42-.57l.69,1Z"/><polygon class="cls-1" points="263.18 166.37 260.35 157.98 257.5 166.37 255.89 166.37 252.21 155.93 253.92 155.93 256.69 164.21 259.48 155.93 261.19 155.93 263.98 164.21 266.75 155.93 268.46 155.93 264.79 166.37 263.18 166.37 263.18 166.37"/><path class="cls-1" d="M271,161.1c0,2.34,1.5,4,3.61,4s3.62-1.69,3.62-4a3.63,3.63,0,1,0-7.23,0Zm8.72,0a5.12,5.12,0,1,1-5.11-5.46,5.14,5.14,0,0,1,5.11,5.46Z"/><path class="cls-1" d="M287.69,156.09l-.34,1.54a2.87,2.87,0,0,0-1.21-.29c-1.37,0-2.34,1.06-2.34,2.95v6.08h-1.5V155.93h1.5v1.41a2.64,2.64,0,0,1,2.47-1.53,3.25,3.25,0,0,1,1.42.28Z"/><polygon class="cls-1" points="291.09 166.37 289.59 166.37 289.59 151.89 291.09 151.89 291.09 160.6 295.7 155.93 297.75 155.93 292.76 160.91 298.38 166.37 296.14 166.37 291.09 161.35 291.09 166.37 291.09 166.37"/><path class="cls-1" d="M298.71,154.42a2,2,0,1,1,2,2A2,2,0,0,1,298.71,154.42Zm3.74,0a1.71,1.71,0,1,0-1.7,1.71A1.65,1.65,0,0,0,302.45,154.42Zm-2.16,1.15H300v-2.33h1c.6,0,.81.23.81.65s-.31.61-.72.65l.69,1h-.33l-.66-1h-.49Zm.41-1.3c.32,0,.78,0,.78-.39s-.28-.37-.56-.37h-.63v.76Z"/><path class="cls-1" d="M94.62,112.48a3.35,3.35,0,0,0-.32-1,1.45,1.45,0,0,0-.52-.57,1.94,1.94,0,0,0-.77-.25c-.3,0-.66,0-1.08,0H85.08c-.4,0-.63,0-.68.12a1.48,1.48,0,0,0-.09.68v8H91a7,7,0,0,0,1-.06,1.56,1.56,0,0,0,.68-.22,1.19,1.19,0,0,0,.42-.53,3.22,3.22,0,0,0,.23-.94h.45v5.27h-.45c-.07-.81-.27-1.32-.61-1.52a3.67,3.67,0,0,0-1.7-.29H84.27l0,9.4a7.09,7.09,0,0,0,0,.92.79.79,0,0,0,.74.74,7.09,7.09,0,0,0,.92.05v.35H79.63v-.35a6.8,6.8,0,0,0,.89-.05.87.87,0,0,0,.5-.23.84.84,0,0,0,.23-.51,5.66,5.66,0,0,0,0-.92V110.94a5.83,5.83,0,0,0,0-.91.92.92,0,0,0-.21-.52.81.81,0,0,0-.49-.23,6.8,6.8,0,0,0-.89,0v-.35H95.07l0,3.6Z"/><path class="cls-1" d="M125.26,132.54H109.33v-.35c.72,0,1.18-.1,1.36-.3a2.25,2.25,0,0,0,.28-1.41V110.94a2.27,2.27,0,0,0-.28-1.41c-.18-.2-.64-.3-1.36-.3v-.35h15.59l0,3.6h-.49c-.12-.88-.39-1.43-.82-1.62a4.57,4.57,0,0,0-1.87-.3h-7.06c-.4,0-.62,0-.68.12a1.48,1.48,0,0,0-.09.68v8H121a6.8,6.8,0,0,0,1-.06,1.65,1.65,0,0,0,.69-.22,1.22,1.22,0,0,0,.4-.53,4.14,4.14,0,0,0,.21-.94h.45v5.27h-.45a4.08,4.08,0,0,0-.21-1,1.29,1.29,0,0,0-.4-.55,1.48,1.48,0,0,0-.67-.24,7.07,7.07,0,0,0-1,0h-7.1v9.12a.6.6,0,0,0,.19.47.9.9,0,0,0,.46.19,2.55,2.55,0,0,0,.56,0l.5,0h5.77a10.13,10.13,0,0,0,1.45-.09,3,3,0,0,0,1.1-.36,3.28,3.28,0,0,0,.88-.75,5.7,5.7,0,0,0,.73-1.28h.56Z"/><path class="cls-1" d="M154.79,132.54c-.56-1.23-1.12-2.35-1.67-3.34a26.12,26.12,0,0,0-1.82-2.78,27.4,27.4,0,0,0-2.13-2.48c-.77-.79-1.65-1.62-2.62-2.48l-2.52,0v9a4.73,4.73,0,0,0,.07.94,1.14,1.14,0,0,0,.24.53,1,1,0,0,0,.53.21c.23,0,.53,0,.91,0v.35h-6.36v-.35a6.36,6.36,0,0,0,.85-.05.93.93,0,0,0,.51-.23.9.9,0,0,0,.23-.51,7.09,7.09,0,0,0,.05-.92V110.94A7.39,7.39,0,0,0,141,110a.79.79,0,0,0-.74-.75,6.36,6.36,0,0,0-.85,0v-.35h8.35a13,13,0,0,1,2.95.33,7.63,7.63,0,0,1,2.5,1.07A5.43,5.43,0,0,1,155,112.2a6.09,6.09,0,0,1,.65,2.94,5.28,5.28,0,0,1-.49,2.32,5.08,5.08,0,0,1-1.33,1.68,7.23,7.23,0,0,1-1.92,1.1,10.24,10.24,0,0,1-2.27.59c.67.56,1.22,1,1.64,1.44s.78.77,1.1,1.13.62.74.93,1.12l1.08,1.35a16.09,16.09,0,0,1,1.33,2l1.17,2.06c.36.64.69,1.18,1,1.63s.6.66.88.66v.35ZM144,119.82h1.68a13.32,13.32,0,0,0,2.46-.23,6.76,6.76,0,0,0,2.18-.8,4.45,4.45,0,0,0,1.58-1.56,4.66,4.66,0,0,0,.59-2.44,4.12,4.12,0,0,0-.49-2.13,3.43,3.43,0,0,0-1.31-1.31,5.53,5.53,0,0,0-1.87-.65,12.58,12.58,0,0,0-2.13-.18H146c-.23,0-.48,0-.73,0a2.37,2.37,0,0,0-.72.17,1.57,1.57,0,0,0-.54.39Z"/><path class="cls-1" d="M188.44,113.08a3.21,3.21,0,0,0-.89-1.91,3.11,3.11,0,0,0-2-.51H181v19.82a4.7,4.7,0,0,0,.07,1,.91.91,0,0,0,.28.51,1.14,1.14,0,0,0,.58.21q.36,0,1,0v.35h-6.75v-.35q.57,0,.93,0a1.17,1.17,0,0,0,.58-.21,1,1,0,0,0,.29-.51,3.88,3.88,0,0,0,.09-1V110.66h-4.61a3.16,3.16,0,0,0-2,.53,3.22,3.22,0,0,0-.93,1.89h-.31l.14-4.2h18.38l.1,4.2Z"/><path class="cls-1" d="M203,132.54v-.35q.6,0,1,0a1.14,1.14,0,0,0,.58-.2.79.79,0,0,0,.28-.5,6,6,0,0,0,.07-1V110.94a5.77,5.77,0,0,0-.07-1,.79.79,0,0,0-.28-.51,1.05,1.05,0,0,0-.58-.19,8.28,8.28,0,0,0-1,0v-.35h6.78v.35a8.28,8.28,0,0,0-1,0,1.05,1.05,0,0,0-.58.19.79.79,0,0,0-.28.51,5.77,5.77,0,0,0-.07,1v19.54a6,6,0,0,0,.07,1,.79.79,0,0,0,.28.5,1.14,1.14,0,0,0,.58.2q.36,0,1,0v.35Z"/><path class="cls-1" d="M240.72,132.54H225v-.35a6.8,6.8,0,0,0,.89-.05.93.93,0,0,0,.51-.23,1,1,0,0,0,.23-.51,7.09,7.09,0,0,0,0-.92V110.94a7.39,7.39,0,0,0,0-.91,1,1,0,0,0-.23-.52.93.93,0,0,0-.51-.23,6.8,6.8,0,0,0-.89,0v-.35h6.43v.35a7.27,7.27,0,0,0-.91,0,1,1,0,0,0-.54.23.89.89,0,0,0-.26.51,4.45,4.45,0,0,0-.07.92V130.2a.57.57,0,0,0,.19.47.91.91,0,0,0,.45.19,2.6,2.6,0,0,0,.56,0l.51,0h5.1c.63,0,1.19,0,1.68-.07a3.82,3.82,0,0,0,1.29-.33,2.79,2.79,0,0,0,1-.8,6.77,6.77,0,0,0,.85-1.45l.46.1Z"/><path class="cls-1" d="M254.14,132.54v-.35q.6,0,1,0a1.17,1.17,0,0,0,.58-.2.79.79,0,0,0,.28-.5,6,6,0,0,0,.07-1V110.94a5.77,5.77,0,0,0-.07-1,.79.79,0,0,0-.28-.51,1.08,1.08,0,0,0-.58-.19,8.28,8.28,0,0,0-1,0v-.35h6.78v.35a8.28,8.28,0,0,0-1,0,1.05,1.05,0,0,0-.58.19.79.79,0,0,0-.28.51,4.87,4.87,0,0,0-.07,1v19.54a5.05,5.05,0,0,0,.07,1,.79.79,0,0,0,.28.5,1.14,1.14,0,0,0,.58.2q.36,0,1,0v.35Z"/><path class="cls-1" d="M292.58,113.08a3.34,3.34,0,0,0-.89-1.91,3.15,3.15,0,0,0-2-.51h-4.55v19.82a5.55,5.55,0,0,0,.07,1,.91.91,0,0,0,.28.51,1.17,1.17,0,0,0,.58.21q.38,0,1,0v.35h-6.74v-.35c.37,0,.68,0,.92,0a1.14,1.14,0,0,0,.58-.21,1,1,0,0,0,.3-.51,4.56,4.56,0,0,0,.08-1V110.66h-4.61a2.51,2.51,0,0,0-2.93,2.42h-.32l.14-4.2h18.38l.11,4.2Z"/><path class="cls-1" d="M324.9,110.63l-7.41,11.43v8.42a4.18,4.18,0,0,0,.09,1,.8.8,0,0,0,.33.5,1.38,1.38,0,0,0,.63.2c.26,0,.58,0,1,0v.35h-7v-.35c.4,0,.72,0,1,0a1.26,1.26,0,0,0,.61-.2.83.83,0,0,0,.32-.5,4.92,4.92,0,0,0,.08-1v-8.32l-7.72-11.43a6.79,6.79,0,0,0-.84-1.08,1.75,1.75,0,0,0-1.22-.42v-.35h6.6v.35a5.54,5.54,0,0,0-.75,0,1.09,1.09,0,0,0-.51.2.47.47,0,0,0-.15.41,1.57,1.57,0,0,0,.33.74l6.25,9.61,6.19-9.75a1.05,1.05,0,0,0,.21-.63.54.54,0,0,0-.21-.38,1,1,0,0,0-.47-.2,4.07,4.07,0,0,0-.61,0v-.35h5.45v.35A2.75,2.75,0,0,0,324.9,110.63Z"/><path class="cls-1" d="M8.52,50.2l1.5,0,2.36,0c.86,0,1.74,0,2.63,0h2.3q.64,1.62,1.32,3.18T20,56.63l10.3,23.56,10-24c.41-1,.8-2,1.19-2.93l1.15-2.94h2c.85,0,1.72,0,2.61,0l2.55,0,1.7,0,.07,1.27a14.64,14.64,0,0,0-2.54.36,3.14,3.14,0,0,0-1.46.74A2.51,2.51,0,0,0,46.85,54a13.61,13.61,0,0,0-.11,2.28l.76,25.16a5.11,5.11,0,0,0,.24,1.5,2,2,0,0,0,.72,1,3.52,3.52,0,0,0,1.47.58,17.69,17.69,0,0,0,2.54.26L52.4,86.1l-1.51,0-1.84,0-1.91,0L45.3,86l-1.49,0-1.53,0-1.44,0-1.19,0-.11-1.27a10.62,10.62,0,0,0,2.07-.36,2.36,2.36,0,0,0,1.19-.77,2.57,2.57,0,0,0,.5-1.4A18.92,18.92,0,0,0,43.36,80L42.6,56.18q-3.16,7.59-6.25,15.05T30.21,86.4l-1.73.22q-1.05-2.66-5-11.7L16,57.87l-.8,21.68a15,15,0,0,0,.08,2.75,2.73,2.73,0,0,0,.61,1.5,2.37,2.37,0,0,0,1.33.67,20.61,20.61,0,0,0,2.23.28L19.4,86.1c-.77,0-1.6,0-2.48,0S15,86,13.85,86c-.91,0-1.86,0-2.86,0s-1.92,0-2.76,0l-.1-1.27a21.11,21.11,0,0,0,2.41-.36A2.66,2.66,0,0,0,12,83.63a3.89,3.89,0,0,0,.75-1.91,26.52,26.52,0,0,0,.29-3.51l.76-19.34c0-.89,0-1.66,0-2.3a11.56,11.56,0,0,0-.18-1.64,4.79,4.79,0,0,0-.4-1.18,4,4,0,0,0-.65-.9,3.56,3.56,0,0,0-1.73-1,13.24,13.24,0,0,0-2.41-.33Z"/><path class="cls-1" d="M82.8,72.82h-12L68,80.19a12.23,12.23,0,0,0-.72,2.69,1.35,1.35,0,0,0,.88,1.35,10.3,10.3,0,0,0,3.15.48l-.11,1.35c-.88,0-1.88,0-3,0L65,86l-2.76,0c-1,0-1.87,0-2.76,0l-.07-1.27a12.78,12.78,0,0,0,2.31-.36,3.57,3.57,0,0,0,1.57-.89,7.43,7.43,0,0,0,1.26-1.8c.39-.76.85-1.77,1.38-3L76.24,53.38c.29-.75.54-1.4.74-2s.43-1.16.67-1.81l2.27-.3c.26,1.2.54,2.3.84,3.29s.58,1.91.85,2.73L89.72,79.7a24.1,24.1,0,0,0,1,2.58,4.08,4.08,0,0,0,1,1.44,3.17,3.17,0,0,0,1.46.7,18.57,18.57,0,0,0,2.28.29l-.1,1.35c-1,0-2.13,0-3.34,0s-2.43,0-3.65,0l-3.07,0c-1,0-2,0-3.06,0l-.11-1.27A10.25,10.25,0,0,0,85,84.28,1.3,1.3,0,0,0,85.86,83a4.11,4.11,0,0,0-.14-1c-.1-.36-.22-.76-.36-1.21ZM71.63,70.65H82.11l-4.82-14.8Z"/><path class="cls-1" d="M104.77,84.83a13,13,0,0,0,2.27-.36,2.94,2.94,0,0,0,1.35-.75,2.71,2.71,0,0,0,.66-1.38,11.88,11.88,0,0,0,.18-2.3V54.87a6.85,6.85,0,0,0-.14-1.49,1.81,1.81,0,0,0-.63-1,3.26,3.26,0,0,0-1.39-.58,15.48,15.48,0,0,0-2.38-.26l.08-1.35,1.4,0,1.77,0c.64,0,1.3,0,2,0h3.39c.56,0,1.12,0,1.67,0l1.57,0,1.24,0,.11,1.27a12,12,0,0,0-2.27.36,3.1,3.1,0,0,0-1.37.74,2.64,2.64,0,0,0-.68,1.39,11.58,11.58,0,0,0-.18,2.26v25.2a6.37,6.37,0,0,0,.14,1.5,1.81,1.81,0,0,0,.63,1,3.2,3.2,0,0,0,1.39.58,15.64,15.64,0,0,0,2.41.26l-.07,1.35-1.42,0-1.82,0-1.91,0-1.84,0-1.55,0-1.66,0-1.56,0-1.25,0Z"/><path class="cls-1" d="M159.16,86.62c-.63-.92-1.25-1.81-1.88-2.67s-1.28-1.73-2-2.6l-19.42-23.9v22.1a14.88,14.88,0,0,0,.2,2.75,2.73,2.73,0,0,0,.74,1.5,2.87,2.87,0,0,0,1.46.67,22.94,22.94,0,0,0,2.4.28l-.08,1.35c-.77,0-1.67,0-2.72,0s-2.14,0-3.29,0c-.92,0-1.87,0-2.87,0s-1.91,0-2.75,0l-.11-1.27a21.52,21.52,0,0,0,2.38-.36,2.73,2.73,0,0,0,1.49-.84,3.89,3.89,0,0,0,.78-1.91,22.68,22.68,0,0,0,.21-3.51V59.47c0-1,0-1.89,0-2.54a9.9,9.9,0,0,0-.17-1.59,3.66,3.66,0,0,0-.34-1,5.31,5.31,0,0,0-.57-.86,6,6,0,0,0-.72-.82,3.46,3.46,0,0,0-.83-.56,4.57,4.57,0,0,0-1.16-.34c-.45-.07-1-.13-1.69-.18l.07-1.35,1.28,0,1.89,0c.7,0,1.42,0,2.16,0h2.09l23.17,28.16V56.78a15,15,0,0,0-.2-2.75,2.66,2.66,0,0,0-.74-1.49,2.87,2.87,0,0,0-1.48-.68c-.62-.11-1.42-.2-2.41-.28l.07-1.34,2.74,0c1.06,0,2.16,0,3.31,0,.46,0,.94,0,1.45,0l1.49,0,1.41,0,1.17,0,0,1.27a19.49,19.49,0,0,0-2.3.37,2.64,2.64,0,0,0-1.43.86,4.15,4.15,0,0,0-.73,1.91,21.43,21.43,0,0,0-.22,3.52V86.25Z"/><path class="cls-1" d="M266.88,51.47a13.66,13.66,0,0,0-2.4.36,3.14,3.14,0,0,0-1.42.74,2.75,2.75,0,0,0-.68,1.41,11.8,11.8,0,0,0-.18,2.28V80a12.22,12.22,0,0,0,.14,2.1,2.32,2.32,0,0,0,.63,1.29,2.75,2.75,0,0,0,1.37.65,11.48,11.48,0,0,0,2.36.19h1.91a13.46,13.46,0,0,0,3.42-.36,5.19,5.19,0,0,0,2.25-1.19,7.45,7.45,0,0,0,1.61-2.23c.45-.92,1-2.06,1.51-3.4l1.37.34q-.28,1.08-.54,2.31c-.17.83-.33,1.64-.47,2.43s-.27,1.55-.36,2.25-.16,1.27-.18,1.72h-5.48l-4.1,0-3,0-2.12,0L261,86h-1.26l-1.58,0-1.73,0-1.64,0-1.28,0-.11-1.27a14.5,14.5,0,0,0,2.4-.36,3.05,3.05,0,0,0,1.42-.75,2.57,2.57,0,0,0,.68-1.38,11.88,11.88,0,0,0,.18-2.3V54.87a5.7,5.7,0,0,0-.16-1.49,1.84,1.84,0,0,0-.65-1,3.2,3.2,0,0,0-1.4-.58,16.41,16.41,0,0,0-2.47-.26l.11-1.35,1.42,0,1.82,0c.65,0,1.31,0,2,0h3.42c.58,0,1.16,0,1.73,0l1.64,0,1.28,0Z"/><path class="cls-1" d="M292.75,84.83a12.71,12.71,0,0,0,2.27-.36,2.84,2.84,0,0,0,1.35-.75,2.64,2.64,0,0,0,.67-1.38,11.88,11.88,0,0,0,.18-2.3V54.87a6.85,6.85,0,0,0-.14-1.49,1.81,1.81,0,0,0-.63-1,3.26,3.26,0,0,0-1.39-.58,15.48,15.48,0,0,0-2.38-.26l.07-1.35,1.41,0,1.76,0c.65,0,1.31,0,2,0h3.38c.57,0,1.13,0,1.68,0l1.57,0,1.24,0,.11,1.27a11.86,11.86,0,0,0-2.27.36,3,3,0,0,0-1.37.74,2.65,2.65,0,0,0-.69,1.39,11.58,11.58,0,0,0-.18,2.26v25.2a6.31,6.31,0,0,0,.15,1.5,1.71,1.71,0,0,0,.63,1,3.16,3.16,0,0,0,1.38.58,15.79,15.79,0,0,0,2.42.26l-.07,1.35-1.43,0-1.82,0-1.91,0-1.83,0-1.55,0-1.66,0-1.57,0-1.24,0Z"/><path class="cls-1" d="M350.83,86.62c-.62-.92-1.25-1.81-1.87-2.67s-1.29-1.73-2-2.6l-19.42-23.9v22.1a14.88,14.88,0,0,0,.2,2.75,2.73,2.73,0,0,0,.74,1.5,2.83,2.83,0,0,0,1.46.67,23,23,0,0,0,2.39.28l-.07,1.35c-.77,0-1.68,0-2.72,0s-2.14,0-3.3,0c-.91,0-1.86,0-2.86,0s-1.92,0-2.76,0l-.11-1.27a20.8,20.8,0,0,0,2.38-.36,2.75,2.75,0,0,0,1.5-.84,3.8,3.8,0,0,0,.77-1.91,21.29,21.29,0,0,0,.22-3.51V59.47c0-1,0-1.89,0-2.54a10.06,10.06,0,0,0-.16-1.59,4,4,0,0,0-.34-1,6.19,6.19,0,0,0-.58-.86,6,6,0,0,0-.72-.82,3.46,3.46,0,0,0-.83-.56,4.37,4.37,0,0,0-1.15-.34c-.46-.07-1-.13-1.69-.18L320,50.2l1.28,0,1.89,0c.69,0,1.42,0,2.16,0h2.09l23.16,28.16V56.78a15.11,15.11,0,0,0-.19-2.75,2.73,2.73,0,0,0-.74-1.49,2.91,2.91,0,0,0-1.48-.68c-.63-.11-1.43-.2-2.41-.28l.07-1.34,2.74,0c1.05,0,2.16,0,3.31,0,.46,0,.94,0,1.44,0l1.5,0,1.4,0,1.17,0,0,1.27a19.36,19.36,0,0,0-2.31.37,2.61,2.61,0,0,0-1.42.86,4.14,4.14,0,0,0-.74,1.91,22.61,22.61,0,0,0-.22,3.52V86.25Z"/><path class="cls-1" d="M380.52,80a12.09,12.09,0,0,0,.15,2.1,2.19,2.19,0,0,0,.63,1.29,2.7,2.7,0,0,0,1.37.65,11.41,11.41,0,0,0,2.36.19h2.66a13.27,13.27,0,0,0,3.41-.36,5.09,5.09,0,0,0,2.21-1.19,8,8,0,0,0,1.61-2.23c.46-.92,1-2.06,1.53-3.4l1.4.34q-.28,1.08-.54,2.31c-.17.83-.32,1.64-.47,2.43s-.26,1.55-.36,2.25-.15,1.27-.18,1.72q-7.17,0-11.62,0L378,86l-1.53,0-1.82,0-1.82,0-1.5,0-.1-1.27a17.33,17.33,0,0,0,2.66-.36,3.36,3.36,0,0,0,1.55-.75,2.48,2.48,0,0,0,.72-1.38,11.88,11.88,0,0,0,.18-2.3V54.87a5.7,5.7,0,0,0-.16-1.49,1.9,1.9,0,0,0-.65-1,3.2,3.2,0,0,0-1.4-.58,16.57,16.57,0,0,0-2.47-.26l.11-1.35,1.56,0,1.79,0c.62,0,1.23,0,1.82,0h1.63l5.91,0q4.5,0,11.46,0c-.15,1.27-.25,2.6-.33,4s-.12,2.88-.14,4.45l-1.44,0a26.22,26.22,0,0,0-.72-3.22,5.24,5.24,0,0,0-1.12-2,3.91,3.91,0,0,0-1.87-1.08,11.66,11.66,0,0,0-3-.32h-5.15a2.7,2.7,0,0,0-1.39.23c-.2.15-.31.53-.31,1.15V66.35L392.7,66l.25.26-.07,3.11c-2.19-.2-4.34-.34-6.47-.42l-5.89-.18Z"/><path class="cls-2" d="M209.21,75.38c3.25-.91-3.3-21.06,11.21-21.6a10.82,10.82,0,0,1-5.19-9.53c0-4.52,2.58-8.87,6.31-10,10.87-3.27,17.47,12,8.66,18.37a6.6,6.6,0,0,1,4,3.71C238.72,65.51,225,93.51,210.56,94c-15.58.53-40-35.42-22.15-41.61,5.27-1.83,9.19-2,11.08-5.28-14.6-11.8-2.4-36.15,13.85-31.84,8.6,2.32,10.95,11.75,9.12,18.17A22.93,22.93,0,0,0,220.32,23c.26,3.51-1.72,7.4-6.33,10.06-3.79,2.18-11,3.58-11.19,8.94-.09,2.51-.25,3.8-.93,5.22a39.13,39.13,0,0,0,12.47,5.72h0a31.3,31.3,0,0,1-13.07-4.5c-2.15,3.6-6.43,4.11-12.17,6.16-14.37,5.14,9.36,33.62,21.68,33.55,10.36-.06,21-18.3,22-27.07.93-6.19-4.46-7.9-6.14-8.17,9.83-4,5.59-19.78-4.58-16.83-2.85.82-5,4.4-5.12,8.2-.17,5.52,3.27,8.8,9.1,10.6-1.42.32-7.69-1-11.42,3.49-4.38,5.31-.49,15.49-4.31,16.85M200.1,45.82a9.79,9.79,0,0,0,.61-3.8c.29-6.13,5.91-7.62,10.71-9.86,10.87-5.07,8-14.52.25-15.55C198.21,15,188.28,35.5,200.1,45.82Z"/><rect class="cls-1" x="331.44" y="122.61" width="68.75" height="0.6"/><rect class="cls-1" x="7.33" y="122.61" width="62.97" height="0.6"/></svg>